<?xml version="1.0" encoding="UTF-8"?>
<!DOCTYPE svg PUBLIC "-//W3C//DTD SVG 1.1//EN" "http://www.w3.org/Graphics/SVG/1.1/DTD/svg11.dtd">
<svg xmlns="http://www.w3.org/2000/svg" version="1.1" width="180px" height="180px" style="shape-rendering:geometricPrecision; text-rendering:geometricPrecision; image-rendering:optimizeQuality; fill-rule:evenodd; clip-rule:evenodd" xmlns:xlink="http://www.w3.org/1999/xlink">
<g><path style="opacity:0.635" fill="#a7d4a0" d="M 118.5,6.5 C 116.485,7.92381 114.152,8.59047 111.5,8.5C 113.515,7.07619 115.848,6.40953 118.5,6.5 Z"/></g>
<g><path style="opacity:0.565" fill="#9ccf93" d="M 111.5,8.5 C 109.967,10.2451 107.967,11.2451 105.5,11.5C 107.033,9.75488 109.033,8.75488 111.5,8.5 Z"/></g>
<g><path style="opacity:0.067" fill="#e4f0e0" d="M 151.5,11.5 C 153.027,11.427 154.027,12.0937 154.5,13.5C 152.973,13.573 151.973,12.9063 151.5,11.5 Z"/></g>
<g><path style="opacity:0.6" fill="#92c988" d="M 103.5,12.5 C 102.738,14.2624 101.404,15.2624 99.5,15.5C 100.262,13.7376 101.596,12.7376 103.5,12.5 Z"/></g>
<g><path style="opacity:0.999" fill="#3baf2e" d="M 151.5,11.5 C 151.973,12.9063 152.973,13.573 154.5,13.5C 158.12,15.4528 161.12,18.1195 163.5,21.5C 163.738,23.4044 164.738,24.7377 166.5,25.5C 166.427,27.0269 167.094,28.0269 168.5,28.5C 168.427,30.0269 169.094,31.0269 170.5,31.5C 171.931,32.7804 172.598,34.4471 172.5,36.5C 174.254,46.4011 174.92,56.4011 174.5,66.5C 174.625,71.1795 173.291,75.3462 170.5,79C 167.518,79.498 164.518,79.6646 161.5,79.5C 161.216,77.5853 161.549,75.9187 162.5,74.5C 164.074,72.8984 164.741,70.8984 164.5,68.5C 164.843,63.7474 165.51,59.0807 166.5,54.5C 166.876,49.1059 165.876,44.1059 163.5,39.5C 160.647,33.6402 156.98,28.3068 152.5,23.5C 152.027,22.0937 151.027,21.427 149.5,21.5C 148.508,21.6716 147.842,21.3382 147.5,20.5C 146.713,18.8958 145.38,18.2291 143.5,18.5C 142.508,18.6716 141.842,18.3382 141.5,17.5C 139.562,15.8372 137.228,15.1706 134.5,15.5C 134.167,15.5 133.833,15.5 133.5,15.5C 129.019,14.3516 124.352,14.1849 119.5,15C 117.509,15.3736 115.842,16.207 114.5,17.5C 112.819,19.0075 110.819,20.0075 108.5,20.5C 106.973,20.427 105.973,21.0937 105.5,22.5C 103.5,25.1667 101.167,27.5 98.5,29.5C 96.2407,30.344 95.2407,32.0107 95.5,34.5C 94.7362,37.0177 93.7362,39.351 92.5,41.5C 90.7424,44.8544 89.7424,48.521 89.5,52.5C 85.5216,50.5216 82.5216,47.5216 80.5,43.5C 80.5123,40.858 79.179,39.5246 76.5,39.5C 76.0269,38.0937 75.0269,37.427 73.5,37.5C 71.1815,37.0075 69.1815,36.0075 67.5,34.5C 66.0101,32.7202 64.0101,32.0535 61.5,32.5C 58.1667,32.1667 54.8333,31.8333 51.5,31.5C 47.0184,31.0339 43.0184,32.0339 39.5,34.5C 36.911,34.461 34.911,35.461 33.5,37.5C 29.8231,37.4795 26.4898,37.4795 23.5,37.5C 21.2275,38.3751 20.2275,40.0418 20.5,42.5C 21.9778,42.238 23.3112,42.5713 24.5,43.5C 23.3881,44.2652 22.7214,45.2652 22.5,46.5C 21.8902,47.391 21.5569,48.391 21.5,49.5C 21.0075,51.8185 20.0075,53.8185 18.5,55.5C 16.8372,57.4385 16.1706,59.7718 16.5,62.5C 16.5,66.8333 16.5,71.1667 16.5,75.5C 16.2878,79.3453 17.2878,82.6786 19.5,85.5C 21.0697,88.3135 22.4031,91.3135 23.5,94.5C 23.427,96.0269 24.0937,97.0269 25.5,97.5C 25.427,99.0269 26.0937,100.027 27.5,100.5C 31.1925,103.862 34.8592,107.195 38.5,110.5C 38.7868,113.484 40.4535,114.817 43.5,114.5C 52.5014,118.998 61.168,123.998 69.5,129.5C 69.8773,131.824 70.8773,132.491 72.5,131.5C 74.8185,131.992 76.8185,132.992 78.5,134.5C 78.3893,135.117 78.056,135.617 77.5,136C 78.7932,136.49 80.1266,136.657 81.5,136.5C 83.153,136.66 84.4863,137.326 85.5,138.5C 85.9731,139.906 86.9731,140.573 88.5,140.5C 89.4916,140.328 90.1583,140.662 90.5,141.5C 90.9731,142.906 91.9731,143.573 93.5,143.5C 93.9731,144.906 94.9731,145.573 96.5,145.5C 96.9731,146.906 97.9731,147.573 99.5,147.5C 103.238,149.697 106.571,152.364 109.5,155.5C 110.221,157.382 111.221,157.715 112.5,156.5C 113.659,152.849 115.326,149.515 117.5,146.5C 120.617,144.223 123.951,143.89 127.5,145.5C 128.573,146.251 128.74,147.251 128,148.5C 126.059,152.722 123.892,156.722 121.5,160.5C 120.069,161.78 119.402,163.447 119.5,165.5C 118.069,166.78 117.402,168.447 117.5,170.5C 117.179,172.048 116.179,172.715 114.5,172.5C 114.5,170.5 113.5,169.5 111.5,169.5C 109.833,168.5 108.5,167.167 107.5,165.5C 106.738,163.738 105.404,162.738 103.5,162.5C 102.415,160.413 100.749,159.08 98.5,158.5C 98.0269,157.094 97.0269,156.427 95.5,156.5C 95.0269,155.094 94.0269,154.427 92.5,154.5C 92.0269,153.094 91.0269,152.427 89.5,152.5C 89.0269,151.094 88.0269,150.427 86.5,150.5C 85.5084,150.672 84.8417,150.338 84.5,149.5C 84.0269,148.094 83.0269,147.427 81.5,147.5C 80.5084,147.672 79.8417,147.338 79.5,146.5C 79.0269,145.094 78.0269,144.427 76.5,144.5C 75.5084,144.672 74.8417,144.338 74.5,143.5C 74.0269,142.094 73.0269,141.427 71.5,141.5C 69.1815,141.008 67.1815,140.008 65.5,138.5C 65.0269,137.094 64.0269,136.427 62.5,136.5C 60.1815,136.008 58.1815,135.008 56.5,133.5C 56.0269,132.094 55.0269,131.427 53.5,131.5C 51.847,131.34 50.5137,130.674 49.5,129.5C 49.0269,128.094 48.0269,127.427 46.5,127.5C 45.5084,127.672 44.8417,127.338 44.5,126.5C 44.0269,125.094 43.0269,124.427 41.5,124.5C 41.0269,123.094 40.0269,122.427 38.5,122.5C 38.0269,121.094 37.0269,120.427 35.5,120.5C 34.7377,118.738 33.4044,117.738 31.5,117.5C 30.5,117.167 29.8333,116.5 29.5,115.5C 28.4154,113.413 26.7488,112.08 24.5,111.5C 24.2624,109.596 23.2624,108.262 21.5,107.5C 16.3131,102.465 12.6464,96.4652 10.5,89.5C 9.86993,85.9523 8.86993,82.6189 7.5,79.5C 6.51192,74.3595 6.17859,69.0262 6.5,63.5C 8.07431,60.0935 9.07431,56.4268 9.5,52.5C 9.26269,51.209 9.59603,50.209 10.5,49.5C 11.9063,49.0269 12.573,48.0269 12.5,46.5C 14.369,44.9663 15.7023,42.9663 16.5,40.5C 19.5,38.1667 22.1667,35.5 24.5,32.5C 26.4044,32.2624 27.7377,31.2624 28.5,29.5C 30.0269,29.573 31.0269,28.9063 31.5,27.5C 31.8417,26.6618 32.5084,26.3284 33.5,26.5C 35.698,26.8799 37.3646,26.2132 38.5,24.5C 41.4951,24.7062 44.1617,24.0395 46.5,22.5C 52.923,22.2088 59.2564,22.5422 65.5,23.5C 66.7804,24.9313 68.4471,25.5979 70.5,25.5C 72.5529,25.4021 74.2196,26.0687 75.5,27.5C 75.9731,28.9063 76.9731,29.573 78.5,29.5C 80.4044,29.7376 81.7377,30.7376 82.5,32.5C 83.7399,34.9845 84.7399,34.9845 85.5,32.5C 86.9063,32.0269 87.573,31.0269 87.5,29.5C 89.369,27.9663 90.7023,25.9663 91.5,23.5C 91.5,22.8333 91.8333,22.5 92.5,22.5C 93.9063,22.0269 94.573,21.0269 94.5,19.5C 96.7488,18.9202 98.4154,17.5869 99.5,15.5C 101.404,15.2624 102.738,14.2624 103.5,12.5C 103.842,11.6618 104.508,11.3284 105.5,11.5C 107.967,11.2451 109.967,10.2451 111.5,8.5C 114.152,8.59047 116.485,7.92381 118.5,6.5C 127.464,4.99788 136.464,5.49788 145.5,8C 147.727,8.94102 149.727,10.1077 151.5,11.5 Z"/></g>
<g><path style="opacity:0.584" fill="#c2dfbe" d="M 134.5,15.5 C 137.228,15.1706 139.562,15.8372 141.5,17.5C 138.933,17.2785 136.599,16.6118 134.5,15.5 Z"/></g>
<g><path style="opacity:0.071" fill="#d7e9d3" d="M 133.5,15.5 C 127.051,15.2315 120.717,15.8982 114.5,17.5C 115.842,16.207 117.509,15.3736 119.5,15C 124.352,14.1849 129.019,14.3516 133.5,15.5 Z"/></g>
<g><path style="opacity:0.647" fill="#9acf92" d="M 99.5,15.5 C 98.4154,17.5869 96.7488,18.9202 94.5,19.5C 95.5846,17.4131 97.2512,16.0798 99.5,15.5 Z"/></g>
<g><path style="opacity:0.251" fill="#ecf4ed" d="M 143.5,18.5 C 145.38,18.2291 146.713,18.8958 147.5,20.5C 145.847,20.3404 144.514,19.6737 143.5,18.5 Z"/></g>
<g><path style="opacity:0.565" fill="#add8a6" d="M 94.5,19.5 C 94.573,21.0269 93.9063,22.0269 92.5,22.5C 92.427,20.9731 93.0937,19.9731 94.5,19.5 Z"/></g>
<g><path style="opacity:0.082" fill="#e8f2e6" d="M 108.5,20.5 C 108.027,21.9063 107.027,22.573 105.5,22.5C 105.973,21.0937 106.973,20.427 108.5,20.5 Z"/></g>
<g><path style="opacity:0.408" fill="#bbdcb7" d="M 149.5,21.5 C 151.027,21.427 152.027,22.0937 152.5,23.5C 150.973,23.573 149.973,22.9063 149.5,21.5 Z"/></g>
<g><path style="opacity:0.627" fill="#b2d9ad" d="M 163.5,21.5 C 165.262,22.2623 166.262,23.5956 166.5,25.5C 164.738,24.7377 163.738,23.4044 163.5,21.5 Z"/></g>
<g><path style="opacity:0.627" fill="#b2d9ab" d="M 46.5,22.5 C 44.1617,24.0395 41.4951,24.7062 38.5,24.5C 40.9052,23.2318 43.5718,22.5651 46.5,22.5 Z"/></g>
<g><path style="opacity:0.302" fill="#d2e6cf" d="M 65.5,23.5 C 67.5529,23.4021 69.2196,24.0687 70.5,25.5C 68.4471,25.5979 66.7804,24.9313 65.5,23.5 Z"/></g>
<g><path style="opacity:0.714" fill="#a1d195" d="M 38.5,24.5 C 37.3646,26.2132 35.698,26.8799 33.5,26.5C 34.9303,25.4625 36.597,24.7959 38.5,24.5 Z"/></g>
<g><path style="opacity:0.055" fill="#e4f0e2" d="M 75.5,27.5 C 77.0269,27.427 78.0269,28.0937 78.5,29.5C 76.9731,29.573 75.9731,28.9063 75.5,27.5 Z"/></g>
<g><path style="opacity:0.396" fill="#bedeb6" d="M 166.5,25.5 C 167.906,25.9731 168.573,26.9731 168.5,28.5C 167.094,28.0269 166.427,27.0269 166.5,25.5 Z"/></g>
<g><path style="opacity:0.522" fill="#c0dfbd" d="M 31.5,27.5 C 31.0269,28.9063 30.0269,29.573 28.5,29.5C 28.9731,28.0937 29.9731,27.427 31.5,27.5 Z"/></g>
<g><path style="opacity:0.918" fill="#7cbf6f" d="M 91.5,23.5 C 90.7023,25.9663 89.369,27.9663 87.5,29.5C 87.8449,26.8021 89.1782,24.8021 91.5,23.5 Z"/></g>
<g><path style="opacity:0.553" fill="#a1d29b" d="M 28.5,29.5 C 27.7377,31.2624 26.4044,32.2624 24.5,32.5C 25.2623,30.7376 26.5956,29.7376 28.5,29.5 Z"/></g>
<g><path style="opacity:0.259" fill="#d9ead7" d="M 168.5,28.5 C 169.906,28.9731 170.573,29.9731 170.5,31.5C 169.094,31.0269 168.427,30.0269 168.5,28.5 Z"/></g>
<g><path style="opacity:0.298" fill="#ddecdd" d="M 87.5,29.5 C 87.573,31.0269 86.9063,32.0269 85.5,32.5C 85.427,30.9731 86.0937,29.9731 87.5,29.5 Z"/></g>
<g><path style="opacity:0.749" fill="#96cc8a" d="M 98.5,29.5 C 97.8897,31.4341 96.8897,33.1007 95.5,34.5C 95.2407,32.0107 96.2407,30.344 98.5,29.5 Z"/></g>
<g><path style="opacity:0.686" fill="#add6a4" d="M 61.5,32.5 C 64.0101,32.0535 66.0101,32.7202 67.5,34.5C 65.3024,34.1249 63.3024,33.4582 61.5,32.5 Z"/></g>
<g><path style="opacity:0.055" fill="#e0eedd" d="M 51.5,31.5 C 47.6138,32.4902 43.6138,33.4902 39.5,34.5C 43.0184,32.0339 47.0184,31.0339 51.5,31.5 Z"/></g>
<g><path style="opacity:0.831" fill="#b2dcac" d="M 82.5,32.5 C 83.5,32.5 84.5,32.5 85.5,32.5C 84.7399,34.9845 83.7399,34.9845 82.5,32.5 Z"/></g>
<g><path style="opacity:0.139" fill="#eff5ed" d="M 39.5,34.5 C 37.8185,36.0075 35.8185,37.0075 33.5,37.5C 34.911,35.461 36.911,34.461 39.5,34.5 Z"/></g>
<g><path style="opacity:0.627" fill="#aad5a4" d="M 24.5,32.5 C 22.1667,35.5 19.5,38.1667 16.5,40.5C 18.1667,36.8333 20.8333,34.1667 24.5,32.5 Z"/></g>
<g><path style="opacity:1" fill="#50b441" d="M 33.5,37.5 C 30.1924,40.4715 26.859,43.4715 23.5,46.5C 23.1667,46.5 22.8333,46.5 22.5,46.5C 22.7214,45.2652 23.3881,44.2652 24.5,43.5C 23.3112,42.5713 21.9778,42.238 20.5,42.5C 20.2275,40.0418 21.2275,38.3751 23.5,37.5C 26.4898,37.4795 29.8231,37.4795 33.5,37.5 Z"/></g>
<g><path style="opacity:0.38" fill="#c8e2c5" d="M 73.5,37.5 C 75.0269,37.427 76.0269,38.0937 76.5,39.5C 74.9731,39.573 73.9731,38.9063 73.5,37.5 Z"/></g>
<g><path style="opacity:0.957" fill="#78bb69" d="M 76.5,39.5 C 79.179,39.5246 80.5123,40.858 80.5,43.5C 78.8333,42.5 77.5,41.1667 76.5,39.5 Z"/></g>
<g><path style="opacity:0.035" fill="#d5ead2" d="M 163.5,39.5 C 165.876,44.1059 166.876,49.1059 166.5,54.5C 165.377,49.6497 164.377,44.6497 163.5,39.5 Z"/></g>
<g><path style="opacity:0.02" fill="#e0efdf" d="M 92.5,41.5 C 92.2576,45.479 91.2576,49.1456 89.5,52.5C 89.7424,48.521 90.7424,44.8544 92.5,41.5 Z"/></g>
<g><path style="opacity:0.914" fill="#79bb6d" d="M 16.5,40.5 C 15.7023,42.9663 14.369,44.9663 12.5,46.5C 12.8449,43.8021 14.1782,41.8021 16.5,40.5 Z"/></g>
<g><path style="opacity:0.839" fill="#80be72" d="M 122.5,48.5 C 119.844,47.842 117.178,47.1754 114.5,46.5C 112.793,46.7284 111.126,47.0617 109.5,47.5C 109.611,46.8826 109.944,46.3826 110.5,46C 113.833,45.3333 117.167,45.3333 120.5,46C 121.381,46.7083 122.047,47.5416 122.5,48.5 Z"/></g>
<g><path style="opacity:0.086" fill="#deeedb" d="M 22.5,46.5 C 22.8333,46.5 23.1667,46.5 23.5,46.5C 23.573,48.0269 22.9063,49.0269 21.5,49.5C 21.5569,48.391 21.8902,47.391 22.5,46.5 Z"/></g>
<g><path style="opacity:1" fill="#34ae28" d="M 122.5,48.5 C 122.738,50.4044 123.738,51.7377 125.5,52.5C 126.229,57.1304 126.563,61.7971 126.5,66.5C 126.598,68.5529 125.931,70.2196 124.5,71.5C 123.094,71.9731 122.427,72.9731 122.5,74.5C 119.452,78.1665 115.785,79.1665 111.5,77.5C 111.027,76.0937 110.027,75.427 108.5,75.5C 104.21,72.3275 102.21,67.9941 102.5,62.5C 102.441,56.2895 104.774,51.2895 109.5,47.5C 111.126,47.0617 112.793,46.7284 114.5,46.5C 117.178,47.1754 119.844,47.842 122.5,48.5 Z"/></g>
<g><path style="opacity:0.278" fill="#d1e9cc" d="M 12.5,46.5 C 12.573,48.0269 11.9063,49.0269 10.5,49.5C 10.427,47.9731 11.0937,46.9731 12.5,46.5 Z"/></g>
<g><path style="opacity:0.565" fill="#a6d09c" d="M 122.5,48.5 C 124.262,49.2623 125.262,50.5956 125.5,52.5C 123.738,51.7377 122.738,50.4044 122.5,48.5 Z"/></g>
<g><path style="opacity:0.655" fill="#a0d29b" d="M 172.5,36.5 C 173.776,38.5625 174.61,40.8958 175,43.5C 175.822,51.3446 175.656,59.0113 174.5,66.5C 174.92,56.4011 174.254,46.4011 172.5,36.5 Z"/></g>
<g><path style="opacity:0.757" fill="#acd7a3" d="M 9.5,52.5 C 9.07431,56.4268 8.07431,60.0935 6.5,63.5C 6.43177,59.4296 7.43177,55.763 9.5,52.5 Z"/></g>
<g><path style="opacity:0.604" fill="#98cd91" d="M 144.5,54.5 C 144.027,55.9063 143.027,56.573 141.5,56.5C 141.973,55.0937 142.973,54.427 144.5,54.5 Z"/></g>
<g><path style="opacity:0.999" fill="#32ad27" d="M 155.5,55.5 C 155.554,57.632 156.554,58.9653 158.5,59.5C 161.62,68.8358 159.287,76.5025 151.5,82.5C 149.973,82.427 148.973,83.0937 148.5,84.5C 145.167,85.8333 141.833,85.8333 138.5,84.5C 137.965,82.5544 136.632,81.5544 134.5,81.5C 133.662,81.1583 133.328,80.4916 133.5,79.5C 133.413,74.4635 133.746,69.4635 134.5,64.5C 135.906,64.0269 136.573,63.0269 136.5,61.5C 136.5,60.8333 136.833,60.5 137.5,60.5C 139.167,59.5 140.5,58.1667 141.5,56.5C 143.027,56.573 144.027,55.9063 144.5,54.5C 145.793,53.8418 147.293,53.5085 149,53.5C 151.544,53.336 153.71,54.0027 155.5,55.5 Z"/></g>
<g><path style="opacity:0.529" fill="#aad4a4" d="M 141.5,56.5 C 140.5,58.1667 139.167,59.5 137.5,60.5C 137.833,58.1667 139.167,56.8333 141.5,56.5 Z"/></g>
<g><path style="opacity:0.349" fill="#d1e9cd" d="M 18.5,55.5 C 18.2785,58.0673 17.6118,60.4006 16.5,62.5C 16.1706,59.7718 16.8372,57.4385 18.5,55.5 Z"/></g>
<g><path style="opacity:0.184" fill="#bedeb9" d="M 125.5,52.5 C 127.047,54.8066 127.713,57.4733 127.5,60.5C 127.495,62.6965 127.162,64.6965 126.5,66.5C 126.563,61.7971 126.229,57.1304 125.5,52.5 Z"/></g>
<g><path style="opacity:0.863" fill="#7cbe6f" d="M 155.5,55.5 C 157.262,56.2623 158.262,57.5956 158.5,59.5C 156.554,58.9653 155.554,57.632 155.5,55.5 Z"/></g>
<g><path style="opacity:0.065" fill="#dfeede" d="M 90.5,63.5 C 92.3797,63.2291 93.713,63.8958 94.5,65.5C 92.847,65.3404 91.5137,64.6737 90.5,63.5 Z"/></g>
<g><path style="opacity:0.29" fill="#cfe6ca" d="M 136.5,61.5 C 136.573,63.0269 135.906,64.0269 134.5,64.5C 134.427,62.9731 135.094,61.9731 136.5,61.5 Z"/></g>
<g><path style="opacity:0.471" fill="#badcb6" d="M 85.5,63.5 C 84.7377,65.2624 83.4044,66.2624 81.5,66.5C 82.2623,64.7376 83.5956,63.7376 85.5,63.5 Z"/></g>
<g><path style="opacity:0.999" fill="#2eac23" d="M 85.5,63.5 C 87.1667,63.5 88.8333,63.5 90.5,63.5C 91.5137,64.6737 92.847,65.3404 94.5,65.5C 95.5,65.8333 96.1667,66.5 96.5,67.5C 96.427,69.0269 97.0937,70.0269 98.5,70.5C 99.2216,70.9175 99.7216,71.5842 100,72.5C 100.499,76.1516 100.665,79.8183 100.5,83.5C 99.3263,84.5137 98.6596,85.847 98.5,87.5C 96.8333,88.5 95.5,89.8333 94.5,91.5C 91.5,92.8333 88.5,92.8333 85.5,91.5C 84.7377,89.7376 83.4044,88.7376 81.5,88.5C 79.9925,86.8185 78.9925,84.8185 78.5,82.5C 78.4672,78.1311 78.8005,73.7978 79.5,69.5C 79.9321,68.2905 80.5987,67.2905 81.5,66.5C 83.4044,66.2624 84.7377,65.2624 85.5,63.5 Z"/></g>
<g><path style="opacity:0.341" fill="#bddeba" d="M 96.5,67.5 C 97.9063,67.9731 98.573,68.9731 98.5,70.5C 97.0937,70.0269 96.427,69.0269 96.5,67.5 Z"/></g>
<g><path style="opacity:0.608" fill="#c0dfba" d="M 164.5,68.5 C 164.741,70.8984 164.074,72.8984 162.5,74.5C 162.595,72.2143 163.262,70.2143 164.5,68.5 Z"/></g>
<g><path style="opacity:0.075" fill="#e1efde" d="M 124.5,71.5 C 124.573,73.0269 123.906,74.0269 122.5,74.5C 122.427,72.9731 123.094,71.9731 124.5,71.5 Z"/></g>
<g><path style="opacity:0.29" fill="#acd6a5" d="M 134.5,64.5 C 133.746,69.4635 133.413,74.4635 133.5,79.5C 132.838,77.6965 132.505,75.6965 132.5,73.5C 132.343,70.1864 133.009,67.1864 134.5,64.5 Z"/></g>
<g><path style="opacity:0.208" fill="#acd7a8" d="M 79.5,69.5 C 78.8005,73.7978 78.4672,78.1311 78.5,82.5C 77.8401,81.036 77.5068,79.3693 77.5,77.5C 77.3817,74.5143 78.0483,71.8476 79.5,69.5 Z"/></g>
<g><path style="opacity:0.341" fill="#abd3a5" d="M 108.5,75.5 C 110.027,75.427 111.027,76.0937 111.5,77.5C 109.973,77.573 108.973,76.9063 108.5,75.5 Z"/></g>
<g><path style="opacity:0.573" fill="#bcdeb6" d="M 16.5,75.5 C 17.8699,78.6189 18.8699,81.9523 19.5,85.5C 17.2878,82.6786 16.2878,79.3453 16.5,75.5 Z"/></g>
<g><path style="opacity:0.02" fill="#daecd8" d="M 7.5,79.5 C 8.86993,82.6189 9.86993,85.9523 10.5,89.5C 8.32003,86.619 7.32003,83.2856 7.5,79.5 Z"/></g>
<g><path style="opacity:0.094" fill="#cfe6cb" d="M 126.5,83.5 C 122.802,83.5524 119.135,83.8857 115.5,84.5C 119.044,82.4309 122.71,82.0976 126.5,83.5 Z"/></g>
<g><path style="opacity:0.882" fill="#7ebf6f" d="M 134.5,81.5 C 136.632,81.5544 137.965,82.5544 138.5,84.5C 136.596,84.2624 135.262,83.2624 134.5,81.5 Z"/></g>
<g><path style="opacity:0.239" fill="#cbe3c9" d="M 126.5,83.5 C 128.38,83.2291 129.713,83.8958 130.5,85.5C 128.847,85.3404 127.514,84.6737 126.5,83.5 Z"/></g>
<g><path style="opacity:0.047" fill="#f0f6ef" d="M 151.5,82.5 C 151.027,83.9063 150.027,84.573 148.5,84.5C 148.973,83.0937 149.973,82.427 151.5,82.5 Z"/></g>
<g><path style="opacity:0.029" fill="#eaf6ea" d="M 100.5,83.5 C 100.771,85.3797 100.104,86.713 98.5,87.5C 98.6596,85.847 99.3263,84.5137 100.5,83.5 Z"/></g>
<g><path style="opacity:0.545" fill="#b1d7af" d="M 115.5,84.5 C 115.027,85.9063 114.027,86.573 112.5,86.5C 112.973,85.0937 113.973,84.427 115.5,84.5 Z"/></g>
<g><path style="opacity:1" fill="#25ac1c" d="M 126.5,83.5 C 127.514,84.6737 128.847,85.3404 130.5,85.5C 132.167,86.5 133.5,87.8333 134.5,89.5C 134.427,91.0269 135.094,92.0269 136.5,92.5C 137.931,93.7804 138.598,95.4471 138.5,97.5C 138.402,99.5529 139.069,101.22 140.5,102.5C 140.402,104.553 141.069,106.22 142.5,107.5C 144.008,109.181 145.008,111.181 145.5,113.5C 145.427,115.027 146.094,116.027 147.5,116.5C 148.927,118.148 149.76,120.148 150,122.5C 150.805,125.696 150.638,128.696 149.5,131.5C 147.479,133.606 145.646,135.939 144,138.5C 143.282,137.549 142.449,137.383 141.5,138C 142.684,139.145 142.684,140.312 141.5,141.5C 135.721,141.591 130.054,140.925 124.5,139.5C 123.508,139.672 122.842,139.338 122.5,138.5C 121.089,136.461 119.089,135.461 116.5,135.5C 115.209,135.737 114.209,135.404 113.5,134.5C 112.737,133.732 111.737,133.232 110.5,133C 103.476,132.675 96.4755,132.175 89.5,131.5C 89.0269,130.094 88.0269,129.427 86.5,129.5C 85.5,129.167 84.8333,128.5 84.5,127.5C 82.7579,122.692 82.0912,117.692 82.5,112.5C 82.3284,111.508 82.6618,110.842 83.5,110.5C 84.9063,110.027 85.573,109.027 85.5,107.5C 86.8333,105.5 88.5,103.833 90.5,102.5C 92.0269,102.573 93.0269,101.906 93.5,100.5C 93.8417,99.6618 94.5084,99.3284 95.5,99.5C 97.0269,99.573 98.0269,98.9063 98.5,97.5C 100.404,97.2624 101.738,96.2624 102.5,94.5C 104.749,93.9202 106.415,92.5869 107.5,90.5C 109.404,90.2624 110.738,89.2624 111.5,87.5C 111.5,86.8333 111.833,86.5 112.5,86.5C 114.027,86.573 115.027,85.9063 115.5,84.5C 119.135,83.8857 122.802,83.5524 126.5,83.5 Z"/></g>
<g><path style="opacity:0.592" fill="#97cc8c" d="M 158.5,84.5 C 157.738,86.2624 156.404,87.2624 154.5,87.5C 155.262,85.7376 156.596,84.7376 158.5,84.5 Z"/></g>
<g><path style="opacity:1" fill="#37ae2a" d="M 171.5,85.5 C 173.22,88.8892 173.887,92.5559 173.5,96.5C 172.962,98.1172 172.629,99.7839 172.5,101.5C 171.5,103.167 170.167,104.5 168.5,105.5C 166.381,105.468 165.048,106.468 164.5,108.5C 155.231,112.358 149.898,109.191 148.5,99C 148.336,96.4563 149.003,94.2897 150.5,92.5C 151.906,92.0269 152.573,91.0269 152.5,89.5C 152.833,88.5 153.5,87.8333 154.5,87.5C 156.404,87.2624 157.738,86.2624 158.5,84.5C 160.117,83.0277 162.117,82.361 164.5,82.5C 167.501,82.1716 169.834,83.1716 171.5,85.5 Z"/></g>
<g><path style="opacity:0.588" fill="#aed8a9" d="M 81.5,88.5 C 83.4044,88.7376 84.7377,89.7376 85.5,91.5C 83.5956,91.2624 82.2623,90.2624 81.5,88.5 Z"/></g>
<g><path style="opacity:0.588" fill="#90c789" d="M 111.5,87.5 C 110.738,89.2624 109.404,90.2624 107.5,90.5C 108.262,88.7376 109.596,87.7376 111.5,87.5 Z"/></g>
<g><path style="opacity:0.098" fill="#e7f2e5" d="M 98.5,87.5 C 98.1667,89.8333 96.8333,91.1667 94.5,91.5C 95.5,89.8333 96.8333,88.5 98.5,87.5 Z"/></g>
<g><path style="opacity:0.278" fill="#d7e9d4" d="M 134.5,89.5 C 135.906,89.9731 136.573,90.9731 136.5,92.5C 135.094,92.0269 134.427,91.0269 134.5,89.5 Z"/></g>
<g><path style="opacity:0.365" fill="#b2d9ae" d="M 152.5,89.5 C 152.573,91.0269 151.906,92.0269 150.5,92.5C 150.427,90.9731 151.094,89.9731 152.5,89.5 Z"/></g>
<g><path style="opacity:0.796" fill="#7dc073" d="M 171.5,85.5 C 172.458,85.9528 173.292,86.6195 174,87.5C 174.498,90.4816 174.665,93.4816 174.5,96.5C 174.167,96.5 173.833,96.5 173.5,96.5C 173.887,92.5559 173.22,88.8892 171.5,85.5 Z"/></g>
<g><path style="opacity:0.698" fill="#97cd8c" d="M 107.5,90.5 C 106.415,92.5869 104.749,93.9202 102.5,94.5C 103.585,92.4131 105.251,91.0798 107.5,90.5 Z"/></g>
<g><path style="opacity:0.541" fill="#acd6a5" d="M 102.5,94.5 C 101.738,96.2624 100.404,97.2624 98.5,97.5C 99.2623,95.7376 100.596,94.7376 102.5,94.5 Z"/></g>
<g><path style="opacity:0.365" fill="#d0e7cb" d="M 23.5,94.5 C 24.9063,94.9731 25.573,95.9731 25.5,97.5C 24.0937,97.0269 23.427,96.0269 23.5,94.5 Z"/></g>
<g><path style="opacity:0.596" fill="#a6d59d" d="M 98.5,97.5 C 98.0269,98.9063 97.0269,99.573 95.5,99.5C 95.9731,98.0937 96.9731,97.427 98.5,97.5 Z"/></g>
<g><path style="opacity:0.408" fill="#b6dab4" d="M 25.5,97.5 C 26.9063,97.9731 27.573,98.9731 27.5,100.5C 26.0937,100.027 25.427,99.0269 25.5,97.5 Z"/></g>
<g><path style="opacity:0.049" fill="#f0f6ef" d="M 138.5,97.5 C 139.931,98.7804 140.598,100.447 140.5,102.5C 139.069,101.22 138.402,99.5529 138.5,97.5 Z"/></g>
<g><path style="opacity:0.239" fill="#e5f0e2" d="M 173.5,96.5 C 173.833,96.5 174.167,96.5 174.5,96.5C 174.598,98.5529 173.931,100.22 172.5,101.5C 172.629,99.7839 172.962,98.1172 173.5,96.5 Z"/></g>
<g><path style="opacity:0.561" fill="#acd6a8" d="M 93.5,100.5 C 93.0269,101.906 92.0269,102.573 90.5,102.5C 90.9731,101.094 91.9731,100.427 93.5,100.5 Z"/></g>
<g><path style="opacity:0.061" fill="#ebf4eb" d="M 140.5,102.5 C 141.931,103.78 142.598,105.447 142.5,107.5C 141.069,106.22 140.402,104.553 140.5,102.5 Z"/></g>
<g><path style="opacity:0.714" fill="#8bc57e" d="M 168.5,105.5 C 167.738,107.262 166.404,108.262 164.5,108.5C 165.048,106.468 166.381,105.468 168.5,105.5 Z"/></g>
<g><path style="opacity:0.086" fill="#d3e8d0" d="M 21.5,107.5 C 23.2624,108.262 24.2624,109.596 24.5,111.5C 22.7376,110.738 21.7376,109.404 21.5,107.5 Z"/></g>
<g><path style="opacity:0.349" fill="#bde0b9" d="M 85.5,107.5 C 85.573,109.027 84.9063,110.027 83.5,110.5C 83.427,108.973 84.0937,107.973 85.5,107.5 Z"/></g>
<g><path style="opacity:0.592" fill="#bbddb7" d="M 24.5,111.5 C 26.7488,112.08 28.4154,113.413 29.5,115.5C 27.2512,114.92 25.5846,113.587 24.5,111.5 Z"/></g>
<g><path style="opacity:0.996" fill="#83c373" d="M 38.5,110.5 C 40.3885,111.604 42.0552,112.937 43.5,114.5C 40.4535,114.817 38.7868,113.484 38.5,110.5 Z"/></g>
<g><path style="opacity:0.322" fill="#d2e7cd" d="M 145.5,113.5 C 146.906,113.973 147.573,114.973 147.5,116.5C 146.094,116.027 145.427,115.027 145.5,113.5 Z"/></g>
<g><path style="opacity:0.506" fill="#b5d9b1" d="M 31.5,117.5 C 33.4044,117.738 34.7377,118.738 35.5,120.5C 33.5956,120.262 32.2623,119.262 31.5,117.5 Z"/></g>
<g><path style="opacity:0.396" fill="#bcdcb7" d="M 35.5,120.5 C 37.0269,120.427 38.0269,121.094 38.5,122.5C 36.9731,122.573 35.9731,121.906 35.5,120.5 Z"/></g>
<g><path style="opacity:0.384" fill="#badcb4" d="M 38.5,122.5 C 40.0269,122.427 41.0269,123.094 41.5,124.5C 39.9731,124.573 38.9731,123.906 38.5,122.5 Z"/></g>
<g><path style="opacity:0.224" fill="#c6e3c2" d="M 82.5,112.5 C 82.0912,117.692 82.7579,122.692 84.5,127.5C 83.2101,126.942 82.3768,125.942 82,124.5C 81.1881,120.311 81.3547,116.311 82.5,112.5 Z"/></g>
<g><path style="opacity:0.31" fill="#d0e7cc" d="M 41.5,124.5 C 43.0269,124.427 44.0269,125.094 44.5,126.5C 42.9731,126.573 41.9731,125.906 41.5,124.5 Z"/></g>
<g><path style="opacity:0.286" fill="#d6e9d2" d="M 46.5,127.5 C 48.0269,127.427 49.0269,128.094 49.5,129.5C 47.9731,129.573 46.9731,128.906 46.5,127.5 Z"/></g>
<g><path style="opacity:0.373" fill="#add5a6" d="M 86.5,129.5 C 88.0269,129.427 89.0269,130.094 89.5,131.5C 87.9731,131.573 86.9731,130.906 86.5,129.5 Z"/></g>
<g><path style="opacity:0.961" fill="#93c886" d="M 69.5,129.5 C 71.0269,129.427 72.0269,130.094 72.5,131.5C 70.8773,132.491 69.8773,131.824 69.5,129.5 Z"/></g>
<g><path style="opacity:0.271" fill="#e0eddc" d="M 53.5,131.5 C 55.0269,131.427 56.0269,132.094 56.5,133.5C 54.9731,133.573 53.9731,132.906 53.5,131.5 Z"/></g>
<g><path style="opacity:0.188" fill="#b5ddb0" d="M 89.5,131.5 C 96.4755,132.175 103.476,132.675 110.5,133C 111.737,133.232 112.737,133.732 113.5,134.5C 106.191,133.816 98.8581,133.316 91.5,133C 90.5842,132.722 89.9175,132.222 89.5,131.5 Z"/></g>
<g><path style="opacity:0.824" fill="#92c683" d="M 78.5,134.5 C 80.0269,134.427 81.0269,135.094 81.5,136.5C 80.1266,136.657 78.7932,136.49 77.5,136C 78.056,135.617 78.3893,135.117 78.5,134.5 Z"/></g>
<g><path style="opacity:0.127" fill="#edf5ed" d="M 116.5,135.5 C 119.089,135.461 121.089,136.461 122.5,138.5C 120.181,138.008 118.181,137.008 116.5,135.5 Z"/></g>
<g><path style="opacity:0.271" fill="#dbebd9" d="M 62.5,136.5 C 64.0269,136.427 65.0269,137.094 65.5,138.5C 63.9731,138.573 62.9731,137.906 62.5,136.5 Z"/></g>
<g><path style="opacity:0.706" fill="#82c273" d="M 149.5,131.5 C 148.679,136.32 146.012,139.653 141.5,141.5C 142.684,140.312 142.684,139.145 141.5,138C 142.449,137.383 143.282,137.549 144,138.5C 145.646,135.939 147.479,133.606 149.5,131.5 Z"/></g>
<g><path style="opacity:0.055" fill="#e5f2e3" d="M 85.5,138.5 C 87.0269,138.427 88.0269,139.094 88.5,140.5C 86.9731,140.573 85.9731,139.906 85.5,138.5 Z"/></g>
<g><path style="opacity:0.063" fill="#e4f1e1" d="M 90.5,141.5 C 92.0269,141.427 93.0269,142.094 93.5,143.5C 91.9731,143.573 90.9731,142.906 90.5,141.5 Z"/></g>
<g><path style="opacity:0.843" fill="#88c57d" d="M 124.5,139.5 C 130.054,140.925 135.721,141.591 141.5,141.5C 135.56,143.986 129.893,143.319 124.5,139.5 Z"/></g>
<g><path style="opacity:0.314" fill="#cee5cb" d="M 71.5,141.5 C 73.0269,141.427 74.0269,142.094 74.5,143.5C 72.9731,143.573 71.9731,142.906 71.5,141.5 Z"/></g>
<g><path style="opacity:0.082" fill="#deeedc" d="M 93.5,143.5 C 95.0269,143.427 96.0269,144.094 96.5,145.5C 94.9731,145.573 93.9731,144.906 93.5,143.5 Z"/></g>
<g><path style="opacity:0.961" fill="#76bc69" d="M 127.5,145.5 C 123.951,143.89 120.617,144.223 117.5,146.5C 117.818,144.182 119.152,142.848 121.5,142.5C 123.987,142.759 125.987,143.759 127.5,145.5 Z"/></g>
<g><path style="opacity:0.286" fill="#d7e9d6" d="M 76.5,144.5 C 78.0269,144.427 79.0269,145.094 79.5,146.5C 77.9731,146.573 76.9731,145.906 76.5,144.5 Z"/></g>
<g><path style="opacity:0.078" fill="#e0eede" d="M 96.5,145.5 C 98.0269,145.427 99.0269,146.094 99.5,147.5C 97.9731,147.573 96.9731,146.906 96.5,145.5 Z"/></g>
<g><path style="opacity:0.314" fill="#d3e7d0" d="M 81.5,147.5 C 83.0269,147.427 84.0269,148.094 84.5,149.5C 82.9731,149.573 81.9731,148.906 81.5,147.5 Z"/></g>
<g><path style="opacity:0.365" fill="#bdddba" d="M 86.5,150.5 C 88.0269,150.427 89.0269,151.094 89.5,152.5C 87.9731,152.573 86.9731,151.906 86.5,150.5 Z"/></g>
<g><path style="opacity:0.373" fill="#c1dec0" d="M 89.5,152.5 C 91.0269,152.427 92.0269,153.094 92.5,154.5C 90.9731,154.573 89.9731,153.906 89.5,152.5 Z"/></g>
<g><path style="opacity:0.38" fill="#bddcba" d="M 92.5,154.5 C 94.0269,154.427 95.0269,155.094 95.5,156.5C 93.9731,156.573 92.9731,155.906 92.5,154.5 Z"/></g>
<g><path style="opacity:0.129" fill="#d0e8cf" d="M 109.5,155.5 C 110.609,155.557 111.609,155.89 112.5,156.5C 111.221,157.715 110.221,157.382 109.5,155.5 Z"/></g>
<g><path style="opacity:0.427" fill="#add7a7" d="M 95.5,156.5 C 97.0269,156.427 98.0269,157.094 98.5,158.5C 96.9731,158.573 95.9731,157.906 95.5,156.5 Z"/></g>
<g><path style="opacity:0.612" fill="#acd4a5" d="M 98.5,158.5 C 100.749,159.08 102.415,160.413 103.5,162.5C 101.251,161.92 99.5846,160.587 98.5,158.5 Z"/></g>
<g><path style="opacity:0.078" fill="#dfefdd" d="M 121.5,160.5 C 121.598,162.553 120.931,164.22 119.5,165.5C 119.402,163.447 120.069,161.78 121.5,160.5 Z"/></g>
<g><path style="opacity:0.651" fill="#aad6a2" d="M 103.5,162.5 C 105.404,162.738 106.738,163.738 107.5,165.5C 105.596,165.262 104.262,164.262 103.5,162.5 Z"/></g>
<g><path style="opacity:0.061" fill="#e7f2e5" d="M 119.5,165.5 C 119.598,167.553 118.931,169.22 117.5,170.5C 117.402,168.447 118.069,166.78 119.5,165.5 Z"/></g>
<g><path style="opacity:0.627" fill="#b8ddb2" d="M 111.5,169.5 C 113.5,169.5 114.5,170.5 114.5,172.5C 113.167,171.833 112.167,170.833 111.5,169.5 Z"/></g>
</svg>
