<?xml version="1.0" standalone="no"?>
<!DOCTYPE svg PUBLIC "-//W3C//DTD SVG 20010904//EN"
 "http://www.w3.org/TR/2001/REC-SVG-20010904/DTD/svg10.dtd">
<svg version="1.0" xmlns="http://www.w3.org/2000/svg"
 width="180.000000pt" height="180.000000pt" viewBox="0 0 180.000000 180.000000"
 preserveAspectRatio="xMidYMid meet">

<g transform="translate(0.000000,180.000000) scale(0.100000,-0.100000)"
fill="#000000" stroke="none">
<path d="M1155 1711 c-113 -32 -206 -107 -269 -214 -15 -26 -30 -47 -32 -47
-2 0 -30 17 -63 39 -85 54 -167 75 -278 69 -108 -6 -185 -34 -256 -92 -113
-92 -167 -196 -175 -336 -10 -193 84 -381 258 -515 31 -24 154 -99 271 -166
251 -143 378 -225 474 -308 39 -33 73 -60 76 -61 4 0 14 21 24 48 10 26 36 82
57 126 22 43 38 79 36 80 -11 8 -69 28 -72 25 -11 -12 -67 -132 -63 -135 3 -3
19 25 36 61 17 36 34 65 36 65 2 0 15 -5 28 -11 l24 -11 -42 -86 c-23 -48 -47
-102 -54 -119 l-13 -33 -52 46 c-89 81 -272 203 -439 293 -161 88 -261 149
-328 201 -223 174 -308 449 -206 664 77 163 226 256 407 256 96 0 178 -24 253
-75 29 -19 55 -35 59 -35 4 0 28 32 54 70 102 155 255 226 438 203 111 -13
184 -49 261 -128 62 -62 97 -123 121 -204 13 -43 14 -44 10 -9 -8 63 -61 159
-122 221 -118 119 -296 165 -459 118z"/>
<path d="M1270 1666 c0 -2 9 -6 20 -9 11 -3 20 -1 20 4 0 5 -9 9 -20 9 -11 0
-20 -2 -20 -4z"/>
<path d="M1155 1642 c-132 -56 -217 -154 -254 -293 l-13 -47 -71 73 c-56 56
-85 77 -131 94 -203 75 -408 -8 -502 -204 -19 -38 -34 -83 -33 -100 1 -24 3
-20 13 20 18 76 65 152 125 206 75 67 143 92 251 93 75 1 93 -3 151 -30 66
-31 118 -76 177 -149 30 -39 31 -39 32 -14 1 72 72 212 136 269 44 39 124 79
178 90 34 6 36 8 11 8 -16 1 -48 -7 -70 -16z"/>
<path d="M1370 1645 c30 -7 57 -12 58 -10 6 5 -71 25 -93 24 -11 0 5 -7 35
-14z"/>
<path d="M1481 1602 c171 -110 234 -314 165 -537 -9 -27 -16 -51 -16 -52 0 -2
7 -3 16 -3 11 0 14 5 10 16 -3 9 1 40 9 69 42 143 17 298 -66 416 -10 14 -16
29 -14 33 3 3 2 4 -1 1 -4 -2 -25 11 -48 29 -41 34 -78 56 -92 56 -4 0 12 -13
37 -28z"/>
<path d="M1104 1312 c-41 -33 -58 -71 -58 -135 0 -77 22 -123 70 -143 121 -50
208 163 110 269 -30 32 -89 36 -122 9z m109 -12 c75 -59 50 -235 -36 -258 -18
-5 -39 -7 -49 -4 -27 7 -59 48 -68 88 -29 129 69 240 153 174z"/>
<path d="M1738 1228 c-7 -129 -23 -197 -52 -208 l-21 -9 22 0 c32 -1 54 72 60
207 3 61 4 112 1 112 -3 0 -8 -46 -10 -102z"/>
<path d="M1434 1231 c-92 -56 -126 -201 -59 -258 42 -37 96 -31 146 15 51 45
69 85 69 152 0 44 -5 56 -29 81 -35 35 -81 38 -127 10z m117 -10 c34 -28 38
-122 7 -176 -61 -104 -186 -115 -204 -18 -8 45 9 116 37 152 44 57 118 77 160
42z"/>
<path d="M826 1120 c-32 -39 -42 -91 -26 -143 31 -105 141 -133 185 -47 33 63
7 178 -46 205 -46 24 -84 19 -113 -15z m117 0 c33 -26 51 -81 44 -137 -14
-123 -142 -125 -178 -2 -33 108 56 200 134 139z"/>
<path d="M141 1114 c0 -11 3 -14 6 -6 3 7 2 16 -1 19 -3 4 -6 -2 -5 -13z"/>
<path d="M151 1059 c-1 -43 36 -149 74 -214 74 -124 142 -176 455 -355 229
-131 300 -177 393 -248 31 -25 59 -43 62 -41 11 11 -209 159 -394 265 -280
160 -366 216 -433 286 -67 70 -122 173 -142 268 -8 36 -15 53 -15 39z"/>
<path d="M1258 944 c54 -20 86 -61 122 -152 15 -39 41 -95 58 -125 63 -111 63
-197 0 -249 -49 -42 -101 -38 -206 14 -80 40 -91 43 -199 49 -131 7 -159 20
-182 85 -28 79 11 153 118 221 31 20 79 55 107 79 28 24 70 52 95 63 24 12 36
21 26 21 -26 0 -53 -16 -127 -75 -36 -29 -90 -68 -120 -88 -62 -39 -80 -58
-104 -104 -33 -66 -10 -160 48 -190 21 -12 67 -19 141 -23 104 -5 114 -8 192
-48 123 -63 203 -56 249 22 32 53 25 129 -18 206 -20 36 -51 101 -69 145 -48
122 -70 146 -139 159 -32 5 -32 5 8 -10z"/>
<path d="M1590 938 c-33 -17 -51 -35 -67 -68 -39 -75 -27 -131 31 -155 84 -35
186 47 186 150 0 49 -13 71 -51 84 -43 15 -48 14 -99 -11z m123 -15 c21 -20
23 -83 2 -122 -25 -50 -71 -81 -120 -81 -69 0 -98 46 -77 119 27 89 136 136
195 84z"/>
</g>
</svg>
